<?xml version="1.0" encoding="UTF-8"?>
<svg version="1.1" xmlns="http://www.w3.org/2000/svg" width="1024" height="1024">
<path d="M0 0 C337.92 0 675.84 0 1024 0 C1024 337.92 1024 675.84 1024 1024 C686.08 1024 348.16 1024 0 1024 C0 686.08 0 348.16 0 0 Z " fill="#CCE6B7" transform="translate(0,0)"/>
<path d="M0 0 C5.65737799 4.0216112 10.65878114 8.37328073 15.53515625 13.3046875 C16.55868446 14.32890305 16.55868446 14.32890305 17.60289001 15.37380981 C19.03459899 16.80851907 20.46389808 18.2456369 21.89086914 19.68505859 C24.05499326 21.86742996 26.22700294 24.04170161 28.40039062 26.21484375 C29.79995116 27.61932149 31.19905498 29.02425451 32.59765625 30.4296875 C33.23639175 31.06953583 33.87512726 31.70938416 34.53321838 32.36862183 C38.87755797 36.75807882 42.97206949 41.31999677 47 46 C47.88873987 47.00962812 48.77802363 48.01877785 49.66796875 49.02734375 C81.14082489 85.37971247 100.67856292 128.36213997 98 177 C97.42591219 183.74610815 96.35461634 190.36989738 95 197 C94.86609863 197.66547852 94.73219727 198.33095703 94.59423828 199.01660156 C93.60663459 203.74512831 92.36652441 208.37046707 91 213 C90.76249023 213.80695313 90.52498047 214.61390625 90.28027344 215.4453125 C85.06342011 232.77017856 78.07124168 249.34341281 70.98223877 265.96250916 C68.96287088 270.7034706 66.98118356 275.45799389 65.03204346 280.22825623 C63.77002365 283.31523549 62.49645829 286.39738157 61.22149658 289.47903442 C60.61859334 290.94382657 60.02067447 292.41068083 59.42791748 293.87960815 C58.60776049 295.90887247 57.7691737 297.92952381 56.92578125 299.94921875 C56.45567627 301.09737061 55.98557129 302.24552246 55.5012207 303.4284668 C54 306 54 306 52.04370117 306.9453125 C47.85804483 307.05731668 43.82770343 305.01101884 39.9609375 303.53320312 C30.92054382 300.28281423 21.41752492 298.76655701 12 297 C11.76974761 292.02084378 11.54249808 287.04155823 11.31744385 282.06216431 C11.23011878 280.13032787 11.14250854 278.1985043 11.05462646 276.26669312 C10.45632243 263.06685991 9.91091747 249.86588961 9.42497635 236.66149902 C8.27199862 205.37729757 6.99426897 174.15040218 4.67694092 142.92672729 C2.8507247 118.30440681 1.80771765 93.67478914 1 69 C0.48087001 75.5629726 -0.03304764 82.12634193 -0.54418945 88.68994141 C-0.71663677 90.89770638 -0.89005772 93.10539564 -1.06469727 95.31298828 C-4.08616032 133.5375971 -6.35769977 171.80752396 -8.30761719 210.1003418 C-8.57305412 215.31201696 -8.84462108 220.52335326 -9.11763382 225.73463631 C-10.35889269 249.48462621 -11.43389707 273.22351741 -12 297 C-12.64721008 297.13762756 -13.29442017 297.27525513 -13.96124268 297.41705322 C-24.83743134 299.73527713 -35.43323801 302.13188059 -45.80639648 306.20751953 C-50.70959326 308.09680225 -50.70959326 308.09680225 -54 307 C-55.20410156 304.71972656 -55.20410156 304.71972656 -56.390625 301.640625 C-56.84526123 300.48071045 -57.29989746 299.3207959 -57.76831055 298.12573242 C-58.26228298 296.83385065 -58.75617703 295.54193891 -59.25 294.25 C-60.04270884 292.2127711 -60.83940875 290.17713068 -61.63627625 288.14152527 C-62.20113274 286.6978657 -62.76466855 285.2536888 -63.32698059 283.80903625 C-65.43540158 278.40168015 -67.60590659 273.02193263 -69.80859375 267.65234375 C-87.8625426 223.63005902 -87.8625426 223.63005902 -92.9375 204.8125 C-93.12521973 204.11882324 -93.31293945 203.42514648 -93.50634766 202.71044922 C-96.48680039 190.89199045 -97.35147382 179.05761678 -97.31567383 166.92407227 C-97.31251707 164.69953124 -97.33607618 162.47633106 -97.36132812 160.25195312 C-97.42395736 146.36738604 -95.51446574 132.91354984 -90.9375 119.75 C-90.64004883 118.88213867 -90.34259766 118.01427734 -90.03613281 117.12011719 C-84.16635068 100.55958464 -76.12172377 85.33307768 -66 71 C-65.51772949 70.31566895 -65.03545898 69.63133789 -64.53857422 68.92626953 C-58.127414 59.92187855 -51.19373774 51.65638277 -43.55821228 43.67356873 C-41.91733555 41.9112158 -40.34737041 40.10033444 -38.77734375 38.2746582 C-35.22589027 34.2056927 -31.49983323 30.35472229 -27.67578125 26.54296875 C-27.00709518 25.87332596 -26.33840912 25.20368317 -25.64945984 24.51374817 C-24.24987428 23.11348786 -22.84904826 21.71446639 -21.44702148 20.31665039 C-19.30400805 18.17902942 -17.16643193 16.03607443 -15.02929688 13.89257812 C-13.66177914 12.52572063 -12.29395153 11.15917307 -10.92578125 9.79296875 C-9.9725573 8.83670845 -9.9725573 8.83670845 -9.00007629 7.86112976 C-8.40232895 7.26653458 -7.8045816 6.67193939 -7.1887207 6.05932617 C-6.66800491 5.53940598 -6.14728912 5.01948578 -5.61079407 4.48381042 C-3.83250534 2.84570943 -1.95467881 1.42070371 0 0 Z " fill="#096231" transform="translate(511,48)"/>
<path d="M0 0 C0.87398437 0.72960937 1.74796875 1.45921875 2.6484375 2.2109375 C3.6384375 2.99597656 4.6284375 3.78101563 5.6484375 4.58984375 C21.44730007 18.39327706 30.95657298 39.68903749 33.6484375 60.2109375 C35.40452892 87.15752632 32.29230783 110.29945927 15.6484375 132.2109375 C15.16375 132.85933594 14.6790625 133.50773438 14.1796875 134.17578125 C0.93255063 150.57235998 -20.81812198 160.83557742 -41.3515625 164.2109375 C-43.68458236 164.24918373 -46.01867758 164.25668034 -48.3515625 164.2109375 C-48.01382813 163.581875 -47.67609375 162.9528125 -47.328125 162.3046875 C-46.88210938 161.44875 -46.43609375 160.5928125 -45.9765625 159.7109375 C-45.53570313 158.875625 -45.09484375 158.0403125 -44.640625 157.1796875 C-39.27291479 144.81768822 -39.42771243 128.65666496 -44.03125 116.1015625 C-50.25790167 102.46924818 -59.40628973 93.73739745 -73.3515625 88.2109375 C-88.81288409 83.15260389 -103.97970472 84.1751933 -118.8359375 90.75390625 C-136.57251498 99.85118836 -147.89639531 113.7273654 -158.3515625 130.2109375 C-161.6008016 128.77551243 -163.8368558 126.98808561 -166.41015625 124.5546875 C-171.39905212 120.03104017 -176.77354773 116.36922544 -182.4140625 112.7109375 C-183.37505859 112.07929688 -184.33605469 111.44765625 -185.32617188 110.796875 C-187.6638127 109.26170789 -190.00553328 107.73324123 -192.3515625 106.2109375 C-190.42244826 99.26982719 -188.04351738 92.68655319 -185.1640625 86.0859375 C-184.76896484 85.17505371 -184.37386719 84.26416992 -183.96679688 83.32568359 C-174.09546407 60.79140506 -162.39290792 40.18530344 -145.3515625 22.2109375 C-144.45824219 21.25316406 -143.56492187 20.29539062 -142.64453125 19.30859375 C-126.87483911 2.73432548 -108.13318117 -8.12155113 -86.3515625 -14.7890625 C-85.29453125 -15.13066406 -84.2375 -15.47226563 -83.1484375 -15.82421875 C-55.55277208 -23.27782185 -22.45478291 -17.82227755 0 0 Z " fill="#0A6231" transform="translate(769.3515625,255.7890625)"/>
<path d="M0 0 C1.09183594 0.350625 2.18367188 0.70125 3.30859375 1.0625 C43.24887441 15.14181558 70.78484634 48.03169236 89 85 C94.35786641 96.39042711 99.00797077 108.06403321 103 120 C102.49251221 120.31114746 101.98502441 120.62229492 101.4621582 120.94287109 C91.74856501 126.92266132 82.35536736 132.94652719 73.56640625 140.234375 C71 142 71 142 67 142 C65.46484375 140.05078125 65.46484375 140.05078125 63.9375 137.3125 C53.02400415 119.21661799 37.6905643 105.96336936 16.9375 100.5625 C2.03280418 97.06848919 -12.93213998 98.85684823 -26.4375 106.125 C-38.75570342 114.01399866 -45.75162113 125.86516223 -49 140 C-50.1725935 152.05523324 -50.14251609 163.31574474 -44 174 C-43.32792615 175.33061601 -42.65926282 176.66299037 -42 178 C-60.98936114 179.69547867 -81.3241744 167.40154669 -95.546875 155.94921875 C-112.60480259 141.39828961 -121.45054311 120.95900133 -124 99 C-125.63303952 69.02179819 -117.65642054 43.8306085 -98.26171875 20.94921875 C-74.60472976 -4.58624082 -32.02516409 -10.78145059 0 0 Z " fill="#0A6231" transform="translate(343,242)"/>
<path d="M0 0 C8.96634201 5.37661434 14.89432225 12.30468505 20.93359375 20.74609375 C25.71992487 27.28191142 30.97187479 30.92510771 37.96875 34.88671875 C46.71053672 40.03599038 52.55110468 46.32990975 55.1953125 56.31640625 C56.31622907 68.65952244 55.00602237 79.61718927 46.96484375 89.53125 C38.71736353 97.85155565 29.78463229 99.78885013 18.50585938 99.90625 C11.56013901 99.76663753 5.69131914 98.19106343 -0.8046875 95.81640625 C-15.58143263 90.4457177 -25.23989206 92.52391893 -39.796875 97.65209961 C-49.27910799 100.7893997 -60.71204023 100.79626003 -69.76953125 96.44140625 C-70.77693359 95.88453125 -70.77693359 95.88453125 -71.8046875 95.31640625 C-73.3825 94.45015625 -73.3825 94.45015625 -74.9921875 93.56640625 C-82.24441637 87.76462315 -86.86150937 81.5148826 -88.8046875 72.31640625 C-89.90289553 61.62869099 -88.85892864 52.57093893 -82.4921875 43.75390625 C-78.8249071 39.76609234 -74.04243784 37.23042313 -69.36206055 34.59936523 C-62.54213903 30.7536897 -57.41714052 26.23437968 -52.8046875 19.94140625 C-51.92928834 18.7844725 -51.05299332 17.62821602 -50.17578125 16.47265625 C-48.84906502 14.70661553 -47.52568842 12.93800946 -46.21484375 11.16015625 C-35.68963731 -2.26329544 -15.55149564 -7.56488008 0 0 Z " fill="#096231" transform="translate(527.8046875,454.68359375)"/>
<path d="M0 0 C0.89525391 0.51046875 0.89525391 0.51046875 1.80859375 1.03125 C20.41059843 11.42404905 38.01137733 17.35939791 59 21 C59.08564209 21.68102783 59.17128418 22.36205566 59.25952148 23.0637207 C59.64904757 26.14705243 60.04321902 29.22977286 60.4375 32.3125 C60.57220703 33.38435547 60.70691406 34.45621094 60.84570312 35.56054688 C60.97783203 36.58857422 61.10996094 37.61660156 61.24609375 38.67578125 C61.36654053 39.62364502 61.4869873 40.57150879 61.61108398 41.5480957 C61.95172452 44.12801191 61.95172452 44.12801191 63 47 C63.08564209 46.28344238 63.17128418 45.56688477 63.25952148 44.82861328 C63.6483426 41.59360063 64.04284855 38.35930633 64.4375 35.125 C64.63956055 33.43310547 64.63956055 33.43310547 64.84570312 31.70703125 C65.04389648 30.09248047 65.04389648 30.09248047 65.24609375 28.4453125 C65.36654053 27.45031738 65.4869873 26.45532227 65.61108398 25.43017578 C66 23 66 23 67 21 C69.3829838 20.47550102 71.71748049 20.0585943 74.125 19.6875 C89.9328974 16.94729934 104.05966482 10.92716703 117.78125 2.75390625 C121 1 121 1 124 1 C124.35191406 1.68964844 124.70382812 2.37929688 125.06640625 3.08984375 C128.49471146 9.61526019 132.31111956 15.32624057 137 21 C137.91652344 22.21623047 137.91652344 22.21623047 138.8515625 23.45703125 C141.25390444 26.30053053 143.84190259 28.49294611 146.75 30.8125 C147.73484375 31.60269531 148.7196875 32.39289062 149.734375 33.20703125 C150.48203125 33.79871094 151.2296875 34.39039063 152 35 C142.72446988 46.10205078 132.45278538 56.15483458 121 65 C119.71200206 66.01662623 118.42426002 67.03357671 117.13671875 68.05078125 C103.67009869 78.60782043 89.53875709 87.65863538 74.75 96.25 C73.76112793 96.83587891 72.77225586 97.42175781 71.75341797 98.02539062 C70.81900879 98.55841797 69.88459961 99.09144531 68.921875 99.640625 C68.09268555 100.12047852 67.26349609 100.60033203 66.40917969 101.09472656 C62.74772862 102.47055353 60.34494394 101.59799224 56.86621094 100.05126953 C55.81095215 99.4728833 55.81095215 99.4728833 54.734375 98.8828125 C53.93572021 98.44670654 53.13706543 98.01060059 52.31420898 97.5612793 C51.04492554 96.85032104 51.04492554 96.85032104 49.75 96.125 C48.86320557 95.63104736 47.97641113 95.13709473 47.06274414 94.62817383 C27.71223238 83.7271837 8.90569633 71.17309083 -7.13671875 55.74609375 C-9.82306611 53.1696924 -12.57711224 50.70391955 -15.375 48.25 C-19.61975889 44.45607335 -23.38477587 40.39333528 -27 36 C-26.34 35.34 -25.68 34.68 -25 34 C-24.54367187 33.53980469 -24.08734375 33.07960938 -23.6171875 32.60546875 C-22.47094791 31.46753524 -21.3076038 30.34671405 -20.1328125 29.23828125 C-11.26771614 20.73537754 -5.57623095 10.81348129 0 0 Z " fill="#0A6231" transform="translate(449,565)"/>
<path d="M0 0 C9.43951904 6.5582705 16.40554443 15.9356887 18.84765625 27.35546875 C20.5718492 42.63036125 18.87081629 56.99323384 9.08203125 69.40234375 C0.70436689 78.31380619 -9.33012383 82.65922429 -21.47949219 83.14697266 C-34.13078125 83.39311822 -45.25029139 80.38914597 -54.875 71.8125 C-65.54867406 60.30890744 -67.56913379 47.17878292 -67.25 32.03515625 C-66.71877015 21.48834647 -62.36256598 12.28544183 -54.875 4.8125 C-39.64101656 -8.49078763 -17.45252209 -10.42865577 0 0 Z " fill="#0A6030" transform="translate(226.875,710.1875)"/>
<path d="M0 0 C1.0725 0.7425 2.145 1.485 3.25 2.25 C12.68935339 11.68935339 16.28996477 23.59169739 16.31689453 36.62719727 C16.08431609 49.31707911 11.19624187 59.48894421 2.75 68.75 C-7.03319961 78.07867043 -19.43554825 79.58378439 -32.3203125 79.3125 C-43.45525136 78.77908976 -53.14867022 73.32338419 -60.75 65.3125 C-70.71881558 53.28037143 -71.28614048 38.91812083 -70 24 C-67.39876014 12.98957955 -60.19927259 3.47414561 -51 -3 C-34.11994598 -12.17497318 -15.76543146 -11.01884995 0 0 Z " fill="#0A6030" transform="translate(641,839)"/>
<path d="M0 0 C49.13848039 0 49.13848039 0 56.5625 7.28125 C61.240267 12.87423229 62.67983093 18.02903095 62.38671875 25.31640625 C61.58341817 30.89082545 59.42067624 34.64697501 55.375 38.5 C53 40 53 40 51 40 C51 40.66 51 41.32 51 42 C51.721875 42.0825 52.44375 42.165 53.1875 42.25 C59.075206 43.82005493 61.98504024 47.93917468 65 53 C67.04259807 59.12779422 66.82394979 65.80558152 64.4375 71.8125 C61.75380826 77.02147111 58.36844799 80.46884977 53.00683594 82.90600586 C42.7661664 86.1792939 31.92974384 85.31949038 21.3125 85.1875 C10.7628125 85.0946875 10.7628125 85.0946875 0 85 C0 56.95 0 28.9 0 0 Z " fill="#0A5F2F" transform="translate(260,706)"/>
<path d="M0 0 C47.3 0 47.3 0 54.9375 6.5 C59.89286586 12.50650407 61.37058441 16.30195588 61.27734375 24.14453125 C60.7034495 30.05321713 58.23681621 34.19364881 53.75 38 C52.8425 38.66 51.935 39.32 51 40 C51.51949219 40.3403125 52.03898437 40.680625 52.57421875 41.03125 C57.66625962 44.57026546 61.93823228 47.99522028 64 54 C64.9166742 60.94400988 65.13177943 68.16639854 61.39453125 74.3203125 C56.97242692 79.64665665 51.77983784 82.67678001 45 84 C41.48773526 84.25853519 37.99281999 84.2338008 34.47265625 84.1953125 C33.59508667 84.19329834 32.71751709 84.19128418 31.81335449 84.18920898 C28.56301581 84.17881509 25.31275216 84.15089295 22.0625 84.125 C11.1415625 84.063125 11.1415625 84.063125 0 84 C0 56.28 0 28.56 0 0 Z " fill="#095F2F" transform="translate(313,832)"/>
<path d="M0 0 C50.5125 0 50.5125 0 60 9 C65.25263991 15.91486774 67.70496232 22.2584672 67 31 C65.14743972 38.56648113 62.33262904 44.31313896 56 49 C53.69367947 50.38932698 51.35695115 51.6962146 49 53 C51.41516591 56.87593726 53.8323986 60.75058149 56.25 64.625 C56.93191406 65.71941406 57.61382813 66.81382812 58.31640625 67.94140625 C58.98027344 69.00488281 59.64414062 70.06835938 60.328125 71.1640625 C60.9355957 72.13811035 61.54306641 73.1121582 62.16894531 74.11572266 C63.48167208 76.18352986 64.84097606 78.22204909 66.22949219 80.23974609 C68 83 68 83 68 85 C61.02339658 86.86974204 53.74890079 88.10196496 47 85 C40.79130859 78.66836421 30 64.0537399 30 55 C26.04 55 22.08 55 18 55 C18 64.9 18 74.8 18 85 C12.06 85 6.12 85 0 85 C0 56.95 0 28.9 0 0 Z " fill="#0A5F2F" transform="translate(720,706)"/>
<path d="M0 0 C6.27 0 12.54 0 19 0 C22.96662685 3.99962707 24.60516714 6.2045039 27 11 C28.29042069 13.01779632 29.60065567 15.02304829 30.9296875 17.015625 C32.24832948 19.09150693 33.56341849 21.16964993 34.875 23.25 C40.78530835 32.59515688 46.86328919 41.79493379 53 51 C53.33 34.17 53.66 17.34 54 0 C60.27 0 66.54 0 73 0 C73 28.05 73 56.1 73 85 C54 85 54 85 49.5625 80.6875 C48.68359244 79.11033793 47.80960252 77.52911907 47.00341797 75.91357422 C45.41745417 72.88905251 43.54002698 70.05960999 41.69311523 67.18945312 C40.12122903 64.74413366 38.57798027 62.28257995 37.0390625 59.81640625 C32.83434967 53.11589792 28.42071337 46.55899321 24 40 C22.68 38.02 21.36 36.04 20 34 C19.67 50.83 19.34 67.66 19 85 C12.73 85 6.46 85 0 85 C0 56.95 0 28.9 0 0 Z " fill="#09602F" transform="translate(427,706)"/>
<path d="M0 0 C0.66 0 1.32 0 2 0 C3.02383911 1.14920716 3.99384347 2.34659048 4.9375 3.5625 C11.70017984 11.50618837 22.6304928 18.04553791 33 20 C46.51300835 21.02150171 58.20535277 19.79335266 69.3125 11.1875 C70.00988281 10.58292969 70.70726562 9.97835937 71.42578125 9.35546875 C73 8 73 8 74 8 C74.41902323 27.64753384 72.57373828 44.48889986 58.875 59.6875 C48.42785631 69.67032619 34.87297101 71.68263052 21.09375 71.37109375 C4.27474525 70.49328165 -8.08365955 59.97538841 -19 48 C-20.02137253 46.682967 -21.03009379 45.35538176 -22 44 C-20.36069656 40.3744506 -18.14237223 37.3411059 -15.8125 34.125 C-8.38432097 23.57809693 -3.34124771 12.49336102 0 0 Z " fill="#096131" transform="translate(615,505)"/>
<path d="M0 0 C2.54965513 2.54965513 3.01586336 4.75538138 4.125 8.1875 C8.02792536 19.60269979 13.43658169 29.93611693 21.53125 38.94921875 C23 41 23 41 23 45 C21.00024341 47.94796945 18.44918224 50.41961157 16 53 C15.4946875 53.59167969 14.989375 54.18335938 14.46875 54.79296875 C7.01598875 63.10127657 -5.3051309 69.96173034 -16.49023438 71.29736328 C-19.10611787 71.43653786 -21.69317669 71.46823083 -24.3125 71.4375 C-25.69671143 71.42396484 -25.69671143 71.42396484 -27.10888672 71.41015625 C-39.42441248 71.09842559 -48.84763567 67.39318204 -58 59 C-71.48631058 43.83640037 -72.36054851 27.32940599 -72 8 C-71.49863525 8.40943848 -70.99727051 8.81887695 -70.48071289 9.24072266 C-58.62135542 18.80893945 -46.81416158 20.96242147 -32 20 C-20.3456925 18.18094142 -8.5107713 11.08885581 -1.28125 1.7890625 C-0.8584375 1.19867188 -0.435625 0.60828125 0 0 Z " fill="#096131" transform="translate(406,505)"/>
<path d="M0 0 C7.26 0 14.52 0 22 0 C29.82339703 20.25884035 37.60737357 40.53207982 45.29104614 60.84439087 C46.05650529 62.86785432 46.82251857 64.89110824 47.58908081 66.91415405 C48.66403046 69.75199664 49.73670188 72.59068876 50.80859375 75.4296875 C51.13287354 76.28515671 51.45715332 77.14062592 51.79125977 78.02201843 C54 83.88510569 54 83.88510569 54 85 C47.4 85 40.8 85 34 85 C32.02 80.05 30.04 75.1 28 70 C16.78 69.67 5.56 69.34 -6 69 C-6.99 72.3 -7.98 75.6 -9 79 C-9.99 80.98 -10.98 82.96 -12 85 C-18.27 85 -24.54 85 -31 85 C-30.09633971 80.48169857 -28.7790752 76.44501946 -27.1484375 72.16796875 C-26.85724533 71.39475784 -26.56605316 70.62154694 -26.26603699 69.8249054 C-25.30589508 67.27775286 -24.34043199 64.73265163 -23.375 62.1875 C-22.70654728 60.4168186 -22.03850292 58.64598298 -21.37084961 56.875 C-19.97096676 53.16265522 -18.56928727 49.45099576 -17.16650391 45.73974609 C-13.95038537 37.22574309 -10.75923707 28.70237526 -7.56646729 20.17959595 C-5.96325642 15.90061455 -4.35852734 11.62220271 -2.75390625 7.34375 C-1.84511719 4.9203125 -0.93632812 2.496875 0 0 Z " fill="#09602F" transform="translate(363,706)"/>
<path d="M0 0 C6.27 0 12.54 0 19 0 C19 10.89 19 21.78 19 33 C30.88 33 42.76 33 55 33 C55 22.11 55 11.22 55 0 C61.27 0 67.54 0 74 0 C74 28.05 74 56.1 74 85 C67.73 85 61.46 85 55 85 C55 73.45 55 61.9 55 50 C43.12 50 31.24 50 19 50 C19 61.88 19 73.76 19 86 C12.73 86 6.46 86 0 86 C0 57.62 0 29.24 0 0 Z " fill="#0B6333" transform="translate(593,706)"/>
<path d="M0 0 C5.94 0 11.88 0 18 0 C18.01458252 1.55315918 18.02916504 3.10631836 18.04418945 4.70654297 C18.10243092 10.50283115 18.17966218 16.29874133 18.26245117 22.09472656 C18.29557919 24.59694251 18.32364833 27.09923101 18.34643555 29.6015625 C18.38020452 33.21125019 18.43253274 36.82028024 18.48828125 40.4296875 C18.49467117 41.53738495 18.5010611 42.6450824 18.50764465 43.78634644 C18.65049777 51.43878176 19.14007766 59.3357245 24 65.5625 C28.98445217 69.145075 35.13755738 68.40377088 41 68 C45.47765393 66.7206703 46.59891143 65.6242854 49.11816406 61.703125 C51.87685756 55.93232577 51.6029702 50.03426049 51.609375 43.75 C51.62591125 42.49614502 51.64244751 41.24229004 51.65948486 39.95043945 C51.6996527 36.64275499 51.72309655 33.33552435 51.73822021 30.02764893 C51.75788956 26.64197358 51.79984784 23.25657918 51.83984375 19.87109375 C51.91361709 13.24742724 51.96325647 6.62397124 52 0 C58.27 0 64.54 0 71 0 C71.09102353 7.20731328 71.16412682 14.41430298 71.20724869 21.62207317 C71.22796447 24.97043768 71.25820278 28.31806905 71.30175781 31.66625977 C71.35074902 35.53152161 71.37307739 39.39620105 71.390625 43.26171875 C71.41127014 44.44142746 71.43191528 45.62113617 71.45318604 46.83659363 C71.4559427 57.24011164 69.68896386 68.05804592 62.8359375 76.28515625 C54.62748888 83.95219656 45.60824408 86.35954247 34.6875 86.375 C33.33881836 86.41173828 33.33881836 86.41173828 31.96289062 86.44921875 C23.12197406 86.48757414 15.81669772 83.40327422 8.859375 77.9765625 C2.72114308 71.45146722 -0.13196629 62.81595521 -0.11352539 54.03808594 C-0.11344986 52.83714294 -0.11337433 51.63619995 -0.11329651 50.39886475 C-0.10813522 49.10708313 -0.10297394 47.81530151 -0.09765625 46.484375 C-0.09579017 45.14487765 -0.09436716 43.80537962 -0.09336853 42.46588135 C-0.08955835 38.94777528 -0.07974091 35.42971079 -0.06866455 31.91162109 C-0.05841817 28.31869061 -0.053864 24.72575339 -0.04882812 21.1328125 C-0.03811725 14.08852308 -0.02053262 7.04426863 0 0 Z " fill="#0A5F2F" transform="translate(226,832)"/>
<path d="M0 0 C2.57515391 1.96202203 5.12584866 3.94187537 7.625 6 C7.0602699 9.90829085 5.20368029 11.89920223 2.5625 14.75 C1.46228516 15.94882812 1.46228516 15.94882812 0.33984375 17.171875 C-0.22605469 17.77515625 -0.79195312 18.3784375 -1.375 19 C-4.67549883 17.76375044 -7.55620939 16.37116638 -10.5 14.4375 C-15.98111148 10.84385298 -20.90881834 10.2689508 -27.375 11 C-30.58368551 12.39691117 -30.58368551 12.39691117 -32.375 15 C-33.04180368 18.04279372 -33.04180368 18.04279372 -32.375 21 C-27.6128599 26.7375182 -19.7317993 28.23226173 -12.8125 29.9375 C-2.54713369 32.52570571 3.92583581 36.87078857 9.765625 45.73046875 C12.1517531 52.03201614 11.84499946 62.46055431 9.125 68.5625 C4.81978505 75.35783928 -1.44737711 79.89236645 -9.0546875 82.33984375 C-22.4373741 85.00063673 -34.67227494 83.39569083 -46.25 76.0625 C-49.66145491 73.65549501 -52.56491742 71.08202606 -55.375 68 C-53.83856148 64.31930113 -51.59349055 62.01224796 -48.75 59.25 C-47.93273437 58.45078125 -47.11546875 57.6515625 -46.2734375 56.828125 C-45.64695312 56.22484375 -45.02046875 55.6215625 -44.375 55 C-43.446875 55.886875 -42.51875 56.77375 -41.5625 57.6875 C-34.53361652 63.64154416 -27.03151253 66.81724489 -17.765625 66.3671875 C-14.72407552 65.9000214 -12.7027951 65.01742242 -10.375 63 C-8.93764754 60.12529507 -8.99327351 58.18105412 -9.375 55 C-14.38349995 49.43256461 -22.42219802 48.57265083 -29.38476562 46.8203125 C-38.14111259 44.46346397 -45.33738875 40.83628417 -50.375 33 C-53.58771348 26.93617716 -54.36439756 20.77501755 -53.375 14 C-50.78129976 5.98834815 -46.39496181 1.02521239 -39.30078125 -3.25 C-26.74603762 -9.38882201 -11.60499654 -6.87703499 0 0 Z " fill="#0A5F2F" transform="translate(569.375,710)"/>
<path d="M0 0 C5.94 0 11.88 0 18 0 C18.01401855 2.4284729 18.01401855 2.4284729 18.02832031 4.90600586 C18.06833037 10.93899586 18.13412112 16.97148184 18.20751953 23.00415039 C18.23566511 25.61020409 18.25691136 28.21634214 18.27099609 30.82250977 C18.29251346 34.57872502 18.33921255 38.33393291 18.390625 42.08984375 C18.39185364 43.24645004 18.39308228 44.40305634 18.39434814 45.5947113 C18.54016398 53.73243403 19.68244631 60.41748362 25.34765625 66.53515625 C30.28552968 69.26225866 35.52975772 68.55734544 41 68 C45.16049778 66.70881103 46.43372573 65.85917475 48.8125 62.25 C51.44822243 55.03644389 51.20116901 47.5352242 51.31640625 39.94140625 C51.33718735 38.79711655 51.35796844 37.65282684 51.37937927 36.47386169 C51.44449793 32.83679924 51.5035839 29.19966769 51.5625 25.5625 C51.60572108 23.08918571 51.6493365 20.61587827 51.69335938 18.14257812 C51.80014053 12.09512198 51.90151319 6.04759668 52 0 C57.94 0 63.88 0 70 0 C70.09083683 7.76340441 70.16402205 15.52651155 70.20724869 23.29030323 C70.22800899 26.89645653 70.25611051 30.50222335 70.30175781 34.1081543 C70.34563443 37.59655674 70.36922369 41.08459054 70.37950897 44.57324791 C70.39035587 46.53339691 70.42151319 48.49340026 70.45318604 50.45332336 C70.45582383 61.10874735 68.60009505 70.35313977 61.06640625 78.27734375 C53.07306354 84.94098106 44.82505284 86.2081301 34.8125 86.3125 C33.90435547 86.34150391 32.99621094 86.37050781 32.06054688 86.40039062 C22.23846788 86.4917915 14.11586603 82.75851904 7 76 C-0.20070066 67.02653801 -0.28364658 58.08159377 -0.1953125 46.97265625 C-0.19157681 45.61502797 -0.18873247 44.25739697 -0.18673706 42.89976501 C-0.17914431 39.34712118 -0.15953397 35.79464397 -0.1373291 32.24206543 C-0.11677613 28.6086655 -0.10771524 24.97523833 -0.09765625 21.34179688 C-0.07628337 14.22779038 -0.04113741 7.11392368 0 0 Z " fill="#095E2E" transform="translate(669,832)"/>
<path d="M0 0 C18.81 0 37.62 0 57 0 C57 5.61 57 11.22 57 17 C44.46 17 31.92 17 19 17 C19 22.61 19 28.22 19 34 C28.9 34 38.8 34 49 34 C49 39.28 49 44.56 49 50 C39.1 50 29.2 50 19 50 C19 56.27 19 62.54 19 69 C32.2 69 45.4 69 59 69 C59 74.28 59 79.56 59 85 C39.53 85 20.06 85 0 85 C0 56.95 0 28.9 0 0 Z " fill="#096232" transform="translate(801,706)"/>
<path d="M0 0 C3.40857615 2.55372689 5.96174833 4.71996624 8.3359375 8.28125 C7.50449219 9.09529297 7.50449219 9.09529297 6.65625 9.92578125 C5.93179688 10.64121094 5.20734375 11.35664062 4.4609375 12.09375 C3.74164062 12.80144531 3.02234375 13.50914062 2.28125 14.23828125 C0.18234813 16.32524194 0.18234813 16.32524194 -1.6640625 19.28125 C-4.15111715 18.13337862 -6.23166832 16.8776192 -8.4765625 15.28125 C-14.35284174 11.59417283 -19.88039118 10.73417973 -26.6640625 11.28125 C-29.7385981 12.0576432 -29.7385981 12.0576432 -31.6640625 14.28125 C-32.31749466 17.05689105 -32.46684361 19.53518498 -31.6640625 22.28125 C-28.73088076 25.15921891 -25.56112194 26.1059867 -21.6640625 27.21875 C-20.51550781 27.56035156 -19.36695313 27.90195312 -18.18359375 28.25390625 C-15.93203161 28.91113249 -13.67951257 29.56509491 -11.42578125 30.21484375 C-2.74017468 32.87460383 4.82567257 36.57578637 9.4921875 44.7421875 C11.64356644 51.2162445 11.63892094 59.76202162 9.2734375 66.21875 C4.0744694 74.43647377 -1.08852161 79.1613133 -10.55200195 81.80957031 C-21.83750709 84.32992587 -35.14161639 82.88040047 -44.99609375 76.85546875 C-48.92155298 74.03700359 -52.35699361 70.79501069 -55.6640625 67.28125 C-54.13187565 63.65063333 -51.9457481 61.2948727 -49.1640625 58.53125 C-48.37 57.73203125 -47.5759375 56.9328125 -46.7578125 56.109375 C-44.6640625 54.28125 -44.6640625 54.28125 -42.6640625 54.28125 C-41.76649299 55.3289049 -40.92031955 56.4209128 -40.1015625 57.53125 C-35.71463028 62.7301865 -31.11269844 64.96148211 -24.3359375 65.58984375 C-17.16275324 65.88523849 -17.16275324 65.88523849 -10.6640625 63.28125 C-9.24364429 60.44041359 -9.34953978 58.42647722 -9.6640625 55.28125 C-12.33923724 52.03545312 -14.77676723 50.56249478 -18.7265625 49.21875 C-19.69335938 48.88746094 -20.66015625 48.55617188 -21.65625 48.21484375 C-24.5390462 47.32005376 -27.4289446 46.53429222 -30.3515625 45.78125 C-38.70867635 43.54316253 -44.79834076 40.67835969 -49.6640625 33.28125 C-53.00573291 27.32929364 -53.63546122 20.98763731 -52.6640625 14.28125 C-49.85017337 5.34454654 -44.23582615 -0.14193776 -36.2265625 -4.65625 C-24.68628323 -8.29815273 -10.06827862 -6.49566363 0 0 Z " fill="#0A5F2F" transform="translate(876.6640625,835.71875)"/>
<path d="M0 0 C1.875 1.5625 1.875 1.5625 4.875 5.5625 C1.245 9.1925 -2.385 12.8225 -6.125 16.5625 C-8.63151042 15.03255208 -11.13802083 13.50260417 -13.64453125 11.97265625 C-17.73919169 9.64482567 -20.9752573 9.37533436 -25.625 9.3125 C-27.34203125 9.27382813 -27.34203125 9.27382813 -29.09375 9.234375 C-32.08564677 9.31183018 -32.08564677 9.31183018 -33.98828125 10.8671875 C-36.0443189 13.93358042 -35.79874746 16.01001339 -35.125 19.5625 C-30.16869844 24.08781882 -24.59276929 25.35020315 -18.25 27 C-9.0433046 29.41270513 -1.27956801 31.9565459 4.5 40 C8.28471335 47.10708957 8.1527926 55.30935263 6.27734375 63.01953125 C3.54877606 69.4538746 -2.24180575 74.4779846 -8.30078125 77.73046875 C-19.36549199 81.80090638 -33.56812472 80.97614291 -44.19921875 76.26171875 C-49.10835693 73.41061713 -53.49169369 69.94215139 -57.125 65.5625 C-57.125 62.5625 -57.125 62.5625 -55.0078125 60.08203125 C-54.09773438 59.18871094 -53.18765625 58.29539062 -52.25 57.375 C-51.34507812 56.47394531 -50.44015625 55.57289063 -49.5078125 54.64453125 C-47.125 52.5625 -47.125 52.5625 -45.125 52.5625 C-44.63 53.284375 -44.135 54.00625 -43.625 54.75 C-39.16943842 59.76250678 -34.15816838 62.18335395 -27.5 63.015625 C-20.67874177 63.48039729 -20.67874177 63.48039729 -14.7421875 60.71484375 C-12.89427447 58.59984049 -12.89427447 58.59984049 -12.625 55.5625 C-13.24426858 51.8468885 -14.27558079 50.95308093 -17.125 48.5625 C-19.55265278 47.49604047 -19.55265278 47.49604047 -22.23046875 46.8515625 C-23.21466797 46.57570313 -24.19886719 46.29984375 -25.21289062 46.015625 C-27.25912011 45.46893231 -29.30598521 44.92461246 -31.35351562 44.3828125 C-40.01094852 41.94949369 -48.10089262 38.40010751 -53.125 30.5625 C-56.42747615 23.92152069 -56.33630765 14.39147145 -54.54296875 7.2421875 C-51.37077145 1.01367225 -44.45451437 -4.85081371 -38 -7.4375 C-24.08132957 -11.16050101 -11.60161358 -7.84815036 0 0 Z " fill="#0A5F2F" transform="translate(473.125,838.4375)"/>
<path d="M0 0 C2.49687088 2.0296809 4.71110185 4.14975182 6.87890625 6.52734375 C5.35127161 10.61330627 2.76806434 12.32560554 -0.74609375 14.77734375 C-1.74898438 15.48375 -2.751875 16.19015625 -3.78515625 16.91796875 C-4.94144531 17.71460938 -4.94144531 17.71460938 -6.12109375 18.52734375 C-8.89217735 17.24289298 -10.63338747 16.08187095 -12.99609375 14.02734375 C-17.74959971 10.00879382 -22.70269183 9.05655077 -28.81640625 9.2109375 C-35.14303998 10.07950925 -40.13857511 13.65982097 -44.12109375 18.52734375 C-49.43536417 25.99604812 -49.09422858 34.70830932 -48.12109375 43.52734375 C-46.55291036 51.25064695 -42.62491289 56.16030297 -36.12109375 60.52734375 C-32.69117837 61.67064888 -29.92245215 61.73116026 -26.30859375 61.77734375 C-24.50455078 61.81601562 -24.50455078 61.81601562 -22.6640625 61.85546875 C-17.13370345 61.34328555 -13.31405315 59.00100721 -9.24609375 55.33984375 C-8.21484375 54.41171875 -7.18359375 53.48359375 -6.12109375 52.52734375 C-1.50109375 55.82734375 3.11890625 59.12734375 7.87890625 62.52734375 C3.42753285 71.43009055 -4.7136653 76.04717797 -13.87109375 79.11328125 C-26.39790183 81.4185619 -39.42063105 79.77074865 -50.41015625 73.4140625 C-59.65189205 66.98213398 -65.75223613 57.52114443 -68.12109375 46.52734375 C-69.39086979 31.49576718 -68.61712002 18.43581853 -58.78125 6.3359375 C-43.09590534 -10.75186151 -19.27074451 -13.94733443 0 0 Z " fill="#0A5F2F" transform="translate(209.12109375,838.47265625)"/>
<path d="M0 0 C3.7594853 2.73230352 6.96620715 5.78572309 10.125 9.1875 C8.60773502 12.96361453 6.38348293 14.9569508 3.25 17.5 C2.38632812 18.21800781 1.52265625 18.93601562 0.6328125 19.67578125 C-1.875 21.1875 -1.875 21.1875 -4.046875 21.06640625 C-6.85553084 19.71609094 -8.68242391 17.38007609 -10.875 15.1875 C-15.991381 11.73691747 -20.88485568 11.2476973 -26.875 12.1875 C-33.87990861 14.62617162 -38.54100206 17.6908816 -41.9921875 24.33984375 C-46.09322326 33.29141491 -45.95263965 41.7208836 -42.77734375 50.96875 C-40.55319417 56.43765459 -37.58335892 60.30790337 -32.484375 63.26953125 C-26.28191542 65.45153425 -18.76632173 65.3867926 -12.4921875 63.453125 C-8.76163135 61.48287456 -6.25305573 58.61190026 -3.875 55.1875 C0.22610762 56.59148279 3.10589159 58.55837038 6.4375 61.3125 C7.32050781 62.03695312 8.20351563 62.76140625 9.11328125 63.5078125 C9.77714844 64.06210937 10.44101562 64.61640625 11.125 65.1875 C7.5317295 73.04455558 1.51470972 76.89281184 -6.2265625 80.2421875 C-16.51473038 83.91436542 -30.41147667 83.89244109 -40.41796875 79.51171875 C-52.9367609 72.76470677 -59.36437839 64.665453 -63.875 51.1875 C-66.73567616 37.76571124 -65.24427076 25.03665947 -58.23828125 13.27734375 C-52.17240769 3.97865506 -43.41224664 -2.60700679 -32.53125 -5.37890625 C-21.41619539 -7.19327546 -9.63712851 -6.14004342 0 0 Z " fill="#0A602F" transform="translate(552.875,835.8125)"/>
<path d="M0 0 C11.81334654 6.50939503 17.9419786 18.284639 22.25 30.5625 C24.59696634 41.25186489 23.94823005 53.19111919 19 63 C15.27851997 68.72825281 10.63967195 73.05843528 4 75 C-1.56654957 76.02683924 -5.84948228 75.52412981 -10.75 72.625 C-17.61351617 67.48342605 -21.87430081 59.21393275 -24 51 C-24.46628656 46.93019936 -24.52395962 42.90621631 -24.5 38.8125 C-24.49500488 37.70205322 -24.49000977 36.59160645 -24.48486328 35.44750977 C-24.23233279 23.56899811 -21.29114639 13.85843536 -13 5 C-8.5713784 1.07463085 -5.99998577 -0.57692171 0 0 Z " fill="#0A6131" transform="translate(542,371)"/>
<path d="M0 0 C8.50115979 3.99034031 12.89606345 13.53878834 16 22 C20.01252422 33.28522438 19.72996503 49.34531551 15 60.3203125 C11.8291724 66.641107 7.7363231 70.77840248 1.6875 74.375 C-4.27523864 75.76168341 -9.82897943 76.10062909 -15.25 72.9375 C-23.45467392 67.03676482 -27.36773362 59.8651889 -29 50 C-30.07923876 35.1560439 -27.35124957 21.10342913 -17.8203125 9.30078125 C-12.25376382 2.90381302 -8.91161524 -0.92189123 0 0 Z " fill="#0A6131" transform="translate(487,371)"/>
<path d="M0 0 C8.42400944 4.02089743 13.11602662 12.16437629 16.375 20.5625 C19.90422278 32.13953206 19.19000265 45.35254773 13.8984375 56.2734375 C10.70653566 61.81293166 6.97995053 65.66853274 1.0625 68.3125 C-4.28188081 69.51225896 -8.1806355 69.76322637 -13 67 C-21.88113741 60.80385762 -26.04012342 53.66266189 -28 43 C-29.13281695 30.4102844 -27.23875231 19.47969503 -20 9 C-14.31869253 2.31010086 -9.08797049 -1.66188587 0 0 Z " fill="#0A6131" transform="translate(436,415)"/>
<path d="M0 0 C8.5510073 4.34157103 12.96388711 12.60264933 16.08203125 21.3359375 C18.73100222 33.43346733 18.5400668 46.55000379 12.08203125 57.3359375 C8.63401792 62.3725643 4.94217391 66.41940449 -1.171875 67.87109375 C-6.46991139 68.70422008 -10.38074747 68.51125232 -15.0390625 65.75390625 C-22.34372296 60.2412415 -27.00536023 52.77321195 -28.29980469 43.64257812 C-28.45207167 40.88186827 -28.47352826 38.16264369 -28.41796875 35.3984375 C-28.40588379 34.43204346 -28.39379883 33.46564941 -28.38134766 32.4699707 C-28.18661719 25.48032732 -27.37900914 19.5186629 -23.91796875 13.3359375 C-23.24701172 12.11197266 -23.24701172 12.11197266 -22.5625 10.86328125 C-17.3021402 2.19003386 -10.51925142 -3.64210334 0 0 Z " fill="#0A6130" transform="translate(596.91796875,415.6640625)"/>
<path d="M0 0 C21.78 0 43.56 0 66 0 C66 5.61 66 11.22 66 17 C58.08 17 50.16 17 42 17 C42 39.44 42 61.88 42 85 C35.73 85 29.46 85 23 85 C23 62.56 23 40.12 23 17 C15.41 17 7.82 17 0 17 C0 11.39 0 5.78 0 0 Z " fill="#0B6030" transform="translate(750,832)"/>
<path d="M0 0 C6.89451157 4.42950471 10.29750781 10.10291837 12.125 18 C12.90834485 26.93559652 13.24797443 36.2513228 8.125 44 C3.57294534 49.08423642 -1.02522456 52.53171746 -7.92578125 53.37109375 C-16.63030881 53.54831168 -21.23900406 52.26553964 -27.5859375 46.42578125 C-33.55361382 40.18155408 -35.02752664 33.5381592 -35.3125 25.0625 C-35.09660265 16.71446923 -33.29561881 10.26046628 -27.5625 4.0625 C-19.89037734 -2.80032702 -9.38529294 -4.69264647 0 0 Z " fill="#CDE7B9" transform="translate(213.875,723)"/>
<path d="M0 0 C5.85466071 3.5400274 8.883948 9.65184401 11 16 C11.6771784 25.05864873 11.74108919 33.95731667 7 42 C2.55512607 47.13155591 -2.18634108 50.58005804 -9.05078125 51.3359375 C-17.05993374 51.43185549 -22.61161523 50.86738932 -28.7109375 45.4921875 C-34.66959272 39.24286617 -36.1529163 32.52657004 -36.4375 24.0625 C-36.22160265 15.71446923 -34.42061881 9.26046628 -28.6875 3.0625 C-20.28939621 -4.48155934 -9.85185853 -5.08055485 0 0 Z " fill="#CDE7B9" transform="translate(626,850)"/>
<path d="M0 0 C5.94 0 11.88 0 18 0 C18 28.05 18 56.1 18 85 C12.06 85 6.12 85 0 85 C0 56.95 0 28.9 0 0 Z " fill="#085D2D" transform="translate(685,706)"/>
<path d="M0 0 C3.34125 -0.0825 6.6825 -0.165 10.125 -0.25 C11.16672363 -0.28641602 12.20844727 -0.32283203 13.28173828 -0.36035156 C19.00616089 -0.42861742 22.58209407 -0.03680862 27 4 C29.5384028 7.62116784 29.13902186 10.59238173 28.53515625 14.8125 C27.74066527 18.06005436 26.48303815 19.78539841 24 22 C18.83672516 24.2623815 14.14203516 24.23849444 8.625 24.125 C5.77875 24.08375 2.9325 24.0425 0 24 C0 16.08 0 8.16 0 0 Z " fill="#CBE6B7" transform="translate(738,722)"/>
<path d="M0 0 C3.34125 -0.0825 6.6825 -0.165 10.125 -0.25 C11.16672363 -0.28641602 12.20844727 -0.32283203 13.28173828 -0.36035156 C19.18230039 -0.43071795 22.52806305 0.04123614 27 4 C28.85198052 7.70396104 28.59940619 11.96703882 28 16 C25.37736673 18.82968327 22.77756612 20.90634849 18.84521484 21.11352539 C17.97590332 21.10828857 17.1065918 21.10305176 16.2109375 21.09765625 C15.36321777 21.09515869 14.51549805 21.09266113 13.64208984 21.09008789 C12.5639502 21.08098389 11.48581055 21.07187988 10.375 21.0625 C6.95125 21.041875 3.5275 21.02125 0 21 C0 14.07 0 7.14 0 0 Z " fill="#D1E9BC" transform="translate(278,755)"/>
<path d="M0 0 C2.660625 -0.061875 5.32125 -0.12375 8.0625 -0.1875 C8.8862915 -0.21481201 9.71008301 -0.24212402 10.55883789 -0.27026367 C16.50706486 -0.33650545 21.37202557 0.62634568 25.9375 4.75 C27.74666976 8.58118302 27.44912807 12.20348773 26.4375 16.25 C23.76638898 19.50178733 19.82747451 20.80530633 15.74047852 21.24072266 C13.33908292 21.29384978 10.96354048 21.26235999 8.5625 21.1875 C5.736875 21.125625 2.91125 21.06375 0 21 C0 14.07 0 7.14 0 0 Z " fill="#D1E9BB" transform="translate(331,880)"/>
<path d="M0 0 C6.27 0 12.54 0 19 0 C19 11.22 19 22.44 19 34 C30.88 34 42.76 34 55 34 C55 34.33 55 34.66 55 35 C42.79 35 30.58 35 18 35 C16.51320275 32.02640551 16.88887395 29.33700821 16.90234375 26.0234375 C16.9037587 25.33819 16.90517365 24.6529425 16.90663147 23.94692993 C16.91223325 21.75624239 16.92478594 19.5656567 16.9375 17.375 C16.94251478 15.89062648 16.94707772 14.40625135 16.95117188 12.921875 C16.96135279 9.2811791 16.98092763 5.64070369 17 2 C12.05 2 7.1 2 2 2 C2 29.06 2 56.12 2 84 C6.95 84 11.9 84 17 84 C16.98839844 81.56882812 16.97679687 79.13765625 16.96484375 76.6328125 C16.95704918 74.28304169 16.95097469 71.93327232 16.94506836 69.58349609 C16.94003379 67.94807289 16.93320573 66.3126542 16.92456055 64.67724609 C16.91245665 62.32909025 16.906763 59.98099381 16.90234375 57.6328125 C16.89718246 56.89942657 16.89202118 56.16604065 16.88670349 55.41043091 C16.88612829 50.22774341 16.88612829 50.22774341 18 48 C30.36592489 47.8425837 42.65415863 48.32292352 55 49 C55 49.33 55 49.66 55 50 C43.12 50 31.24 50 19 50 C19 61.88 19 73.76 19 86 C12.73 86 6.46 86 0 86 C0 57.62 0 29.24 0 0 Z " fill="#0F5929" transform="translate(593,706)"/>
<path d="M0 0 C18.81 0 37.62 0 57 0 C57 5.28 57 10.56 57 16 C44.13 16 31.26 16 18 16 C18 15.67 18 15.34 18 15 C30.54 15 43.08 15 56 15 C56 10.71 56 6.42 56 2 C38.18 2 20.36 2 2 2 C2 29.06 2 56.12 2 84 C20.48 84 38.96 84 58 84 C58 79.38 58 74.76 58 70 C44.8 70 31.6 70 18 70 C18 69.67 18 69.34 18 69 C31.53 69 45.06 69 59 69 C59 74.28 59 79.56 59 85 C39.53 85 20.06 85 0 85 C0 56.95 0 28.9 0 0 Z " fill="#004719" transform="translate(801,706)"/>
<path d="M0 0 C3.06303578 -0.08115993 6.12390815 -0.14057409 9.1875 -0.1875 C10.48397461 -0.22520508 10.48397461 -0.22520508 11.80664062 -0.26367188 C16.68835222 -0.3197835 20.067322 -0.25490183 24 3 C25.14993366 5.29986731 25.2316929 6.81469088 25.3125 9.375 C25.34988281 10.14585937 25.38726562 10.91671875 25.42578125 11.7109375 C25 14 25 14 23.65234375 16.2734375 C19.42464714 19.02548743 15.17082546 18.42036147 10.25 18.25 C8.77466797 18.22292969 8.77466797 18.22292969 7.26953125 18.1953125 C4.84593659 18.14825241 2.42284375 18.07651086 0 18 C0 12.06 0 6.12 0 0 Z " fill="#D2E9BC" transform="translate(278,722)"/>
<path d="M0 0 C3.06345144 -0.10822792 6.1230601 -0.18741479 9.1875 -0.25 C10.05181641 -0.28351562 10.91613281 -0.31703125 11.80664062 -0.3515625 C16.0611794 -0.41676616 18.35727716 -0.39830711 22.05078125 1.890625 C24.37453579 4.40530927 24.9340295 5.40626553 25.3125 8.8125 C24.92835642 12.7307645 23.70743683 14.21293267 21 17 C18.65147472 18.17426264 17.26225935 18.11508173 14.6484375 18.09765625 C13.79765625 18.09443359 12.946875 18.09121094 12.0703125 18.08789062 C11.18085938 18.07951172 10.29140625 18.07113281 9.375 18.0625 C8.4778125 18.05798828 7.580625 18.05347656 6.65625 18.04882812 C4.43747169 18.03702611 2.21872757 18.01909039 0 18 C0 12.06 0 6.12 0 0 Z " fill="#D1E9BC" transform="translate(331,848)"/>
<path d="M0 0 C0.66 0 1.32 0 2 0 C3.42819399 3.94956413 4.85224928 7.90058797 6.27246094 11.85302734 C6.75634643 13.19783932 7.24136744 14.54224328 7.72753906 15.88623047 C8.42550666 17.81632453 9.11939898 19.74784137 9.8125 21.6796875 C10.23144531 22.84226074 10.65039062 24.00483398 11.08203125 25.20263672 C12 28 12 28 12 30 C4.74 30 -2.52 30 -10 30 C-6.625 18.75 -6.625 18.75 -5.17578125 14.6484375 C-4.86962891 13.77832031 -4.56347656 12.90820312 -4.24804688 12.01171875 C-3.93931641 11.14160156 -3.63058594 10.27148438 -3.3125 9.375 C-2.83200195 8.01181641 -2.83200195 8.01181641 -2.34179688 6.62109375 C-1.56326686 4.41332207 -0.78264756 2.20631463 0 0 Z " fill="#D1E8BB" transform="translate(373,729)"/>
<path d="M0 0 C6.27 0 12.54 0 19 0 C19 28.05 19 56.1 19 85 C12.73 85 6.46 85 0 85 C0 84.67 0 84.34 0 84 C5.61 84 11.22 84 17 84 C17 56.94 17 29.88 17 2 C12.05 2 7.1 2 2 2 C2 12.23 2 22.46 2 33 C-0.45286296 29.32070555 -0.23228878 27.52622093 -0.1953125 23.14453125 C-0.1924826 22.48289474 -0.18965271 21.82125824 -0.18673706 21.13957214 C-0.17555918 19.03036263 -0.15045981 16.92158075 -0.125 14.8125 C-0.11496707 13.38086552 -0.10584176 11.94922436 -0.09765625 10.51757812 C-0.07733071 7.01142222 -0.03817991 3.5061887 0 0 Z " fill="#125B2A" transform="translate(648,706)"/>
<path d="M0 0 C0.02312241 11.45650016 0.04091457 22.91299481 0.05181217 34.36951351 C0.05704122 39.68865213 0.06413927 45.00777484 0.07543945 50.3269043 C0.08626755 55.45563985 0.09227667 60.58436006 0.09487724 65.71310616 C0.09673163 67.67441614 0.10035251 69.63572524 0.10573006 71.59702873 C0.11293946 74.33415447 0.11399099 77.07121597 0.11352539 79.80834961 C0.11712067 80.62761932 0.12071594 81.44688904 0.12442017 82.29098511 C0.11405216 87.88594784 0.11405216 87.88594784 -1 89 C-2.41570123 89.08651611 -3.835595 89.10704904 -5.25390625 89.09765625 C-6.10791016 89.09443359 -6.96191406 89.09121094 -7.84179688 89.08789062 C-8.73962891 89.07951172 -9.63746094 89.07113281 -10.5625 89.0625 C-11.46419922 89.05798828 -12.36589844 89.05347656 -13.29492188 89.04882812 C-15.53001314 89.03700225 -17.76497437 89.0205222 -20 89 C-20 88.67 -20 88.34 -20 88 C-14.06 88 -8.12 88 -2 88 C-2 59.62 -2 31.24 -2 2 C-7.61 2 -13.22 2 -19 2 C-19 1.67 -19 1.34 -19 1 C-16.95857606 0.83038614 -14.91684689 0.66444404 -12.875 0.5 C-11.16957031 0.36078125 -11.16957031 0.36078125 -9.4296875 0.21875 C-6.27300381 0.01741254 -3.16154133 -0.01551677 0 0 Z " fill="#E7F2C8" transform="translate(705,704)"/>
<path d="M0 0 C11.88 0 23.76 0 36 0 C36 6.6 36 13.2 36 20 C35.67 20 35.34 20 35 20 C35 14.06 35 8.12 35 2 C24.11 2 13.22 2 2 2 C2.01160156 4.44277344 2.02320313 6.88554688 2.03515625 9.40234375 C2.04294684 11.75870636 2.04902359 14.11506756 2.05493164 16.47143555 C2.05997174 18.11369464 2.06680378 19.75594923 2.07543945 21.39819336 C2.08751926 23.75375479 2.09323139 26.10925709 2.09765625 28.46484375 C2.10281754 29.20339096 2.10797882 29.94193817 2.11329651 30.7028656 C2.1134925 32.46898088 2.06194719 34.23497146 2 36 C1 37 1 37 -0.94946289 37.11352539 C-2.1984436 37.10567017 -2.1984436 37.10567017 -3.47265625 37.09765625 C-4.37177734 37.09443359 -5.27089844 37.09121094 -6.19726562 37.08789062 C-7.61555664 37.07532227 -7.61555664 37.07532227 -9.0625 37.0625 C-10.01189453 37.05798828 -10.96128906 37.05347656 -11.93945312 37.04882812 C-14.29303065 37.0370011 -16.64648477 37.02052025 -19 37 C-19 36.67 -19 36.34 -19 36 C-12.73 36 -6.46 36 0 36 C0 24.12 0 12.24 0 0 Z " fill="#E9F5CB" transform="translate(612,756)"/>
<path d="M0 0 C3.06873583 3.83591978 5.88170226 7.67650582 8.58203125 11.76171875 C9.00046799 12.39358597 9.41890472 13.02545319 9.85002136 13.6764679 C10.72622225 15.00253192 11.60098302 16.32954853 12.47436523 17.6574707 C13.81852237 19.6966363 15.17380668 21.72812157 16.52929688 23.75976562 C17.38090463 25.0516246 18.23184056 26.34392675 19.08203125 27.63671875 C19.49024612 28.24505051 19.898461 28.85338226 20.31904602 29.48014832 C21.27509277 30.94796396 22.1467421 32.47014408 23 34 C22.67 34.66 22.34 35.32 22 36 C15.44244926 26.81019298 9.26707674 17.40061511 3 8 C2.67 22.85 2.34 37.7 2 53 C1.34 53 0.68 53 0 53 C0 35.51 0 18.02 0 0 Z " fill="#E4F2C9" transform="translate(446,738)"/>
<path d="M0 0 C6.27 0 12.54 0 19 0 C19 0.33 19 0.66 19 1 C13.39 1 7.78 1 2 1 C2 7.93 2 14.86 2 22 C12.395 21.505 12.395 21.505 23 21 C20.75299139 23.24700861 19.18136401 23.93270437 16.00708008 24.11352539 C15.26868896 24.10828857 14.53029785 24.10305176 13.76953125 24.09765625 C13.04612549 24.09515869 12.32271973 24.09266113 11.57739258 24.09008789 C10.66497803 24.08098389 9.75256348 24.07187988 8.8125 24.0625 C5.904375 24.041875 2.99625 24.02125 0 24 C0 16.08 0 8.16 0 0 Z " fill="#E1F1C9" transform="translate(738,722)"/>
<path d="M0 0 C5.61 0 11.22 0 17 0 C17 0.66 17 1.32 17 2 C12.05 2 7.1 2 2 2 C2 12.23 2 22.46 2 33 C-0.45286296 29.32070555 -0.23228878 27.52622093 -0.1953125 23.14453125 C-0.1924826 22.48289474 -0.18965271 21.82125824 -0.18673706 21.13957214 C-0.17555918 19.03036263 -0.15045981 16.92158075 -0.125 14.8125 C-0.11496707 13.38086552 -0.10584176 11.94922436 -0.09765625 10.51757812 C-0.07733071 7.01142222 -0.03817991 3.5061887 0 0 Z " fill="#025023" transform="translate(648,706)"/>
<path d="M0 0 C0.99 0.33 1.98 0.66 3 1 C3.04954711 5.05676492 3.085789 9.11341194 3.10986328 13.17041016 C3.11990253 14.54967315 3.13353677 15.92891496 3.15087891 17.30810547 C3.17521754 19.2938514 3.18543255 21.2797545 3.1953125 23.265625 C3.20578613 24.45961914 3.21625977 25.65361328 3.22705078 26.88378906 C3.01034762 29.85798164 2.56186122 31.50318379 1 34 C-0.98 34 -2.96 34 -5 34 C-5 33.67 -5 33.34 -5 33 C-3.35 33 -1.7 33 0 33 C0 22.11 0 11.22 0 0 Z " fill="#B1D6A6" transform="translate(499,312)"/>
<path d="M0 0 C0.33 0 0.66 0 1 0 C1 5.61 1 11.22 1 17 C-1.94616538 18.47308269 -4.47762594 18.00294692 -7.7578125 17.87890625 C-8.42086395 17.85529526 -9.08391541 17.83168427 -9.76705933 17.80735779 C-11.88659129 17.73073184 -14.00575685 17.64670357 -16.125 17.5625 C-17.56117994 17.50927819 -18.9973778 17.4565378 -20.43359375 17.40429688 C-23.95595436 17.27511856 -27.47802352 17.1392997 -31 17 C-31 16.67 -31 16.34 -31 16 C-21.1 16 -11.2 16 -1 16 C-1 11.05 -1 6.1 -1 1 C-0.67 0.67 -0.34 0.34 0 0 Z " fill="#C1DEB0" transform="translate(851,740)"/>
<path d="M0 0 C0.33 0 0.66 0 1 0 C1 1.98 1 3.96 1 6 C1.99 6 2.98 6 4 6 C4.33 4.68 4.66 3.36 5 2 C5.2700558 9.8316181 4.23107719 17.27279225 3 25 C2.67 25 2.34 25 2 25 C0.62707087 16.6030674 -0.31274919 8.51372785 0 0 Z " fill="#E2F1CB" transform="translate(509,593)"/>
<path d="M0 0 C-0.33 0.99 -0.66 1.98 -1 3 C-5.62459244 4.17700048 -10.07866462 4.11408412 -14.8125 4.0625 C-15.99489258 4.05573242 -15.99489258 4.05573242 -17.20117188 4.04882812 C-19.13414761 4.03711312 -21.06708393 4.01917998 -23 4 C-22.67 3.34 -22.34 2.68 -22 2 C-20.72382813 1.93941406 -19.44765625 1.87882813 -18.1328125 1.81640625 C-16.46352984 1.73200432 -14.79425963 1.64735614 -13.125 1.5625 C-12.28324219 1.52318359 -11.44148438 1.48386719 -10.57421875 1.44335938 C-9.76855469 1.40146484 -8.96289062 1.35957031 -8.1328125 1.31640625 C-7.01737061 1.26141968 -7.01737061 1.26141968 -5.87939453 1.20532227 C-3.65464062 0.96226978 -2.26227007 0 0 0 Z " fill="#035222" transform="translate(354,864)"/>
<path d="M0 0 C-0.33 6.6 -0.66 13.2 -1 20 C-1.33 20 -1.66 20 -2 20 C-2 14.06 -2 8.12 -2 2 C-7.61 2 -13.22 2 -19 2 C-19 1.67 -19 1.34 -19 1 C-16.95857606 0.83038614 -14.91684689 0.66444404 -12.875 0.5 C-11.16957031 0.36078125 -11.16957031 0.36078125 -9.4296875 0.21875 C-6.29198838 0.0186234 -3.14407481 0 0 0 Z " fill="#E3F1C8" transform="translate(705,704)"/>
<path d="M0 0 C0.0270817 2.72923388 0.04687847 5.45819637 0.0625 8.1875 C0.07087891 8.95642578 0.07925781 9.72535156 0.08789062 10.51757812 C0.10491934 14.48526789 -0.01395885 18.12571234 -1 22 C-1.33 22 -1.66 22 -2 22 C-2 16.06 -2 10.12 -2 4 C-2.66 3.67 -3.32 3.34 -4 3 C-1.125 0 -1.125 0 0 0 Z " fill="#054F1F" transform="translate(689,513)"/>
<path d="M0 0 C0.99 0.33 1.98 0.66 3 1 C1.55218207 4.44428265 -0.27694609 6.36130962 -3.125 8.75 C-4.21167969 9.67039062 -4.21167969 9.67039062 -5.3203125 10.609375 C-5.87460937 11.06828125 -6.42890625 11.5271875 -7 12 C-7.66 11.67 -8.32 11.34 -9 11 C-6.03 7.37 -3.06 3.74 0 0 Z " fill="#D7EBC1" transform="translate(786,385)"/>
<path d="M0 0 C0.99 0.33 1.98 0.66 3 1 C-0.67088608 5.6835443 -0.67088608 5.6835443 -2.625 7.5625 C-4.21566052 9.22546327 -5.06324481 10.91031534 -6 13 C-6.6796875 11.26171875 -6.6796875 11.26171875 -7 9 C-5.8203125 6.89453125 -5.8203125 6.89453125 -4.125 4.8125 C-3.57070313 4.11769531 -3.01640625 3.42289063 -2.4453125 2.70703125 C-1.659571 1.77900682 -0.8598311 0.8598311 0 0 Z " fill="#0C5626" transform="translate(525,710)"/>
<path d="M0 0 C0.66 0 1.32 0 2 0 C2.19622241 4.21878192 1.80230168 7.17010894 0 11 C-1.32 9.68 -2.64 8.36 -4 7 C-2.79618552 4.50638429 -1.54571278 2.31856917 0 0 Z " fill="#095525" transform="translate(597,542)"/>
<path d="M0 0 C0 5.28 0 10.56 0 16 C-0.33 16 -0.66 16 -1 16 C-1 14.35 -1 12.7 -1 11 C-1.66 11 -2.32 11 -3 11 C-3 7.7 -3 4.4 -3 1 C-1 0 -1 0 0 0 Z " fill="#156837" transform="translate(246,740)"/>
<path d="M0 0 C2 2 2 2 2.125 4.625 C2.08375 5.40875 2.0425 6.1925 2 7 C1.278125 7.12375 0.55625 7.2475 -0.1875 7.375 C-2.95721894 7.9904931 -5.3970354 8.88444374 -8 10 C-7.04367001 8.70684939 -6.08486149 7.41553147 -5.125 6.125 C-4.59132813 5.40570313 -4.05765625 4.68640625 -3.5078125 3.9453125 C-2 2 -2 2 0 0 Z " fill="#0C5223" transform="translate(406,505)"/>
<path d="M0 0 C0.66 0.33 1.32 0.66 2 1 C1.21625 1.721875 0.4325 2.44375 -0.375 3.1875 C-2.89827157 5.89100525 -3.75431691 7.61886019 -5 11 C-6.5 12.6875 -6.5 12.6875 -8 14 C-8.66 14.66 -9.32 15.32 -10 16 C-9.46322564 11.84551354 -8.19850793 9.54037665 -5.5625 6.3125 C-4.94503906 5.54550781 -4.32757813 4.77851563 -3.69140625 3.98828125 C-2 2 -2 2 0 0 Z " fill="#074E1D" transform="translate(474,375)"/>
<path d="M0 0 C0.99 0 1.98 0 3 0 C3 0.66 3 1.32 3 2 C4.1446875 2.4021875 4.1446875 2.4021875 5.3125 2.8125 C7.98678071 3.99415892 9.31681182 4.64353655 11 7 C11.8125 10.0625 11.8125 10.0625 12 13 C11.34 13.66 10.68 14.32 10 15 C9.938125 13.9275 9.87625 12.855 9.8125 11.75 C9.33677753 7.91949493 9.33677753 7.91949493 6.6875 5.6875 C4.49268002 4.30935722 2.36621807 3.05165248 0 2 C0 1.34 0 0.68 0 0 Z " fill="#074F1D" transform="translate(551,757)"/>
<path d="M0 0 C0.66 0 1.32 0 2 0 C2.5345256 1.24420647 3.05208611 2.49570936 3.5625 3.75 C3.85253906 4.44609375 4.14257812 5.1421875 4.44140625 5.859375 C5.07831803 8.30012784 4.80248831 9.6403655 4 12 C3.01 9.69 2.02 7.38 1 5 C0.34 6.65 -0.32 8.3 -1 10 C-2.46726798 6.18510326 -1.43336419 3.70988378 0 0 Z " fill="#DEEFCA" transform="translate(373,729)"/>
<path d="M0 0 C2.07114674 2.63600494 3.47524303 4.95048605 5 8 C2.03 8 -0.94 8 -4 8 C-3.67 7.01 -3.34 6.02 -3 5 C-2.01 5 -1.02 5 0 5 C0 3.35 0 1.7 0 0 Z " fill="#145D2D" transform="translate(296,412)"/>
<path d="M0 0 C0 3.33156142 -0.45664761 5.06028115 -2 8 C-4.5 9.875 -4.5 9.875 -7 11 C-7.66 10.67 -8.32 10.34 -9 10 C-6.03 6.7 -3.06 3.4 0 0 Z " fill="#0A5423" transform="translate(623,279)"/>
<path d="M0 0 C0.33 0 0.66 0 1 0 C1.05398987 2.27057377 1.09278742 4.54151288 1.125 6.8125 C1.14820313 8.07707031 1.17140625 9.34164063 1.1953125 10.64453125 C1 14 1 14 -1 17 C-2 16 -2 16 -2.09765625 13.49609375 C-2.08605469 12.48675781 -2.07445312 11.47742188 -2.0625 10.4375 C-2.05347656 9.42558594 -2.04445313 8.41367187 -2.03515625 7.37109375 C-2.02355469 6.58863281 -2.01195312 5.80617187 -2 5 C-1.67 5 -1.34 5 -1 5 C-0.67 3.35 -0.34 1.7 0 0 Z " fill="#BFDFB0" transform="translate(504,248)"/>
<path d="M0 0 C0.33 0 0.66 0 1 0 C1.24809955 2.6244748 1.4741699 5.24767145 1.6875 7.875 C1.79674805 8.99455078 1.79674805 8.99455078 1.90820312 10.13671875 C2.07421875 12.3046875 2.07421875 12.3046875 2 16 C1.01 16.66 0.02 17.32 -1 18 C-1.09945415 11.88909517 -1.0712828 6.02596573 0 0 Z " fill="#136838" transform="translate(505,168)"/>
<path d="M0 0 C0.33 0 0.66 0 1 0 C1.05410687 1.77049689 1.09284119 3.54146849 1.125 5.3125 C1.14820313 6.29863281 1.17140625 7.28476562 1.1953125 8.30078125 C1 11 1 11 -1 14 C-1.66 14 -2.32 14 -3 14 C-2.88617347 12.04098546 -2.75858875 10.0827662 -2.625 8.125 C-2.55539062 7.03445313 -2.48578125 5.94390625 -2.4140625 4.8203125 C-2 2 -2 2 0 0 Z " fill="#C3E1B2" transform="translate(889,886)"/>
<path d="M0 0 C3.91568857 0.53744745 6.0755421 2.06648446 9.1875 4.4375 C6.1875 4.4375 6.1875 4.4375 2.8125 3.9375 C-0.14041201 3.53020179 -2.84403836 3.34754662 -5.8125 3.4375 C-3.98781681 1.00458908 -3.0558457 0.47535378 0 0 Z " fill="#084C1C" transform="translate(538.8125,370.5625)"/>
<path d="M0 0 C0.66 0.33 1.32 0.66 2 1 C1.525625 2.051875 1.05125 3.10375 0.5625 4.1875 C-0.69323741 7.10175851 -1.52234381 9.84746914 -2 13 C-2.66 13 -3.32 13 -4 13 C-3.50269348 8.02693484 -2.44697666 4.36200187 0 0 Z " fill="#085322" transform="translate(414,427)"/>
<path d="M0 0 C0.66 0.33 1.32 0.66 2 1 C1.67 1.99 1.34 2.98 1 4 C2.32 4.33 3.64 4.66 5 5 C4.01 5.99 3.02 6.98 2 8 C1.01 7.67 0.02 7.34 -1 7 C-1.625 4.625 -1.625 4.625 -2 2 C-1.34 1.34 -0.68 0.68 0 0 Z " fill="#0A5525" transform="translate(411,377)"/>
<path d="M0 0 C0.99 0 1.98 0 3 0 C3.28875 0.639375 3.5775 1.27875 3.875 1.9375 C4.82823451 4.15206079 4.82823451 4.15206079 7 5 C6.01 5.66 5.02 6.32 4 7 C2.02 5.35 0.04 3.7 -2 2 C-1.34 1.34 -0.68 0.68 0 0 Z " fill="#0A5222" transform="translate(462,848)"/>
<path d="M0 0 C0.66 0.33 1.32 0.66 2 1 C-0.97 3.475 -0.97 3.475 -4 6 C-4.66 5.67 -5.32 5.34 -6 5 C-6 3.68 -6 2.36 -6 1 C-5.38125 1.20625 -4.7625 1.4125 -4.125 1.625 C-3.073125 1.810625 -3.073125 1.810625 -2 2 C-1.34 1.34 -0.68 0.68 0 0 Z " fill="#095525" transform="translate(774,396)"/>
<path d="M0 0 C1.485 0.99 1.485 0.99 3 2 C3.29296875 4.1640625 3.29296875 4.1640625 3.1875 6.625 C3.16042969 7.44226563 3.13335938 8.25953125 3.10546875 9.1015625 C3.07066406 9.72804687 3.03585937 10.35453125 3 11 C2.01 10.67 1.02 10.34 0 10 C0 6.7 0 3.4 0 0 Z " fill="#166B39" transform="translate(606,197)"/>
<path d="M0 0 C0.99 0.33 1.98 0.66 3 1 C3 2.98 3 4.96 3 7 C2.67 7 2.34 7 2 7 C1.67 8.98 1.34 10.96 1 13 C0.67 13 0.34 13 0 13 C0 8.71 0 4.42 0 0 Z " fill="#136A39" transform="translate(503,190)"/>
<path d="M0 0 C0.33 0.66 0.66 1.32 1 2 C1.66 2 2.32 2 3 2 C3.36256858 3.4562672 3.71479793 4.91511185 4.0625 6.375 C4.35833984 7.59316406 4.35833984 7.59316406 4.66015625 8.8359375 C5 11 5 11 4 13 C3.32694982 11.39850114 2.66177773 9.79368971 2 8.1875 C1.62875 7.29417969 1.2575 6.40085937 0.875 5.48046875 C0 3 0 3 0 0 Z " fill="#084E1E" transform="translate(381,745)"/>
<path d="M0 0 C0.33 0.99 0.66 1.98 1 3 C-2.18762365 5.12508244 -4.26512223 5.5020163 -8 6 C-5.63379989 3.38472619 -3.057952 1.73559438 0 0 Z " fill="#DFF0C8" transform="translate(541,650)"/>
<path d="M0 0 C0.99 0.33 1.98 0.66 3 1 C2.67 3.31 2.34 5.62 2 8 C1.01 8 0.02 8 -1 8 C-0.67 5.36 -0.34 2.72 0 0 Z " fill="#D8ECC1" transform="translate(803,341)"/>
<path d="M0 0 C0.99 0.33 1.98 0.66 3 1 C2.01 2.32 1.02 3.64 0 5 C-1.32 4.67 -2.64 4.34 -4 4 C-2.68 2.68 -1.36 1.36 0 0 Z " fill="#196231" transform="translate(827,895)"/>
<path d="M0 0 C0 3 0 3 -2 5.1875 C-2.66 5.785625 -3.32 6.38375 -4 7 C-4.66 6.67 -5.32 6.34 -6 6 C-3.375 1.125 -3.375 1.125 0 0 Z " fill="#024919" transform="translate(235,777)"/>
<path d="M0 0 C0.33 0.99 0.66 1.98 1 3 C-1.31 3.66 -3.62 4.32 -6 5 C-6 4.34 -6 3.68 -6 3 C-4.02 2.01 -2.04 1.02 0 0 Z " fill="#105A29" transform="translate(392,518)"/>
<path d="M0 0 C0.99 0 1.98 0 3 0 C2.814375 0.5775 2.62875 1.155 2.4375 1.75 C1.95976454 4.20692525 2.24270636 5.64397534 3 8 C0.52557871 5.84832931 -0.56238367 4.28212246 -1 1 C-0.67 0.67 -0.34 0.34 0 0 Z " fill="#DFEFC8" transform="translate(789,274)"/>
</svg>
